<?xml version="1.0" encoding="UTF-8"?><svg id="Capa_2" xmlns="http://www.w3.org/2000/svg" viewBox="0 0 544 544"><defs><style>.cls-1{fill:none;stroke:#e367a7;stroke-miterlimit:10;stroke-width:12px;}.cls-2{fill:#e367a7;}.cls-2,.cls-3{stroke-width:0px;}.cls-3{fill:#fff;}</style></defs><g id="Capa_1-2"><path class="cls-1" d="M272,538c146.91,0,266-119.09,266-266S418.91,6,272,6,6,125.09,6,272s119.09,266,266,266Z"/><path class="cls-3" d="M348.31,155.93h-38.69v-19.35c0-10.68-8.66-19.35-19.35-19.35h-38.69c-10.68,0-19.35,8.66-19.35,19.35v19.35h-38.69c-16.03,0-29.02,12.99-29.02,29.02v212.8c0,16.03,12.99,29.02,29.02,29.02h154.76c16.03,0,29.02-12.99,29.02-29.02v-212.8c0-16.03-12.99-29.02-29.02-29.02Z"/><path class="cls-2" d="M313.11,209.13l-101.56,101.56h50.78l-16.93,67.71,101.56-101.56h-50.78l16.93-67.71Z"/></g></svg>