<?xml version="1.0" encoding="UTF-8"?><svg id="Capa_2" xmlns="http://www.w3.org/2000/svg" viewBox="0 0 544 544"><defs><style>.cls-1,.cls-2,.cls-3,.cls-4{stroke-width:0px;}.cls-1,.cls-3{fill-rule:evenodd;}.cls-1,.cls-4{fill:#fff;}.cls-5{fill:none;stroke:#e367a7;stroke-miterlimit:10;stroke-width:12px;}.cls-2,.cls-3{fill:#e367a7;}</style></defs><g id="Capa_1-2"><path class="cls-5" d="M272,538c146.91,0,266-119.09,266-266S418.91,6,272,6,6,125.09,6,272s119.09,266,266,266Z"/><path class="cls-4" d="M394.36,131.57L130.24,395.75v24.11L394.36,131.57Z"/><path class="cls-1" d="M188.1,368.48c45.37-4.99,93.18-17.55,132.3-48.8-7.97-1.84-15.28-4.76-21.41-7.91,34.21,5.21,56.39-21.95,74.16-51.8-13.86,1.78-27.65-.71-38.3-4.28,17.48,0,41.39-16.06,52.81-24.56v-.06c11.6-27.95,18.56-61.08,18.56-100.27-140.21,0-210.77,125.14-219.19,219.19l-42.49,42.49v23.47l43.56-47.46Z"/><path class="cls-3" d="M180.86,371.03l175.97-192.05-156.96,189.49c-6.36,1.01-12.71,1.86-19.01,2.56Z"/><path class="cls-2" d="M265.45,434.86c-10.88,1.53-17.08,7.73-18.61,18.61-.06.45-.69.45-.75,0-1.53-10.87-7.73-17.08-18.61-18.61-.45-.06-.45-.69,0-.75,10.88-1.53,17.08-7.73,18.61-18.61.06-.45.69-.45.75,0,1.53,10.87,7.73,17.08,18.61,18.61.45.07.45.69,0,.75Z"/><path class="cls-2" d="M167.41,281.14c-18.41,2.59-28.9,13.08-31.49,31.49-.11.77-1.16.77-1.27,0-2.59-18.4-13.08-28.9-31.49-31.49-.77-.11-.77-1.16,0-1.27,18.41-2.59,28.9-13.08,31.49-31.49.11-.77,1.16-.77,1.27,0,2.59,18.4,13.08,28.9,31.49,31.49.77.11.77,1.16,0,1.27Z"/></g></svg>